<?xml version="1.0" encoding="UTF-8"?>
<!DOCTYPE svg PUBLIC "-//W3C//DTD SVG 1.1//EN" "http://www.w3.org/Graphics/SVG/1.1/DTD/svg11.dtd">
<svg version="1.1" xmlns="http://www.w3.org/2000/svg" xmlns:xlink="http://www.w3.org/1999/xlink" x="0" y="0" width="16" height="16" viewBox="0, 0, 16, 16">
  <g id="Livello_1">
    <path d="M8,9.791 C7.011,9.791 6.209,8.989 6.209,8 C6.209,7.011 7.011,6.209 8,6.209 C8.989,6.209 9.791,7.011 9.791,8 C9.791,8.989 8.989,9.791 8,9.791 z" fill="#FFFFFF"/>
    <path d="M8,15 C7.011,15 6.209,14.198 6.209,13.209 C6.209,12.22 7.011,11.418 8,11.418 C8.989,11.418 9.791,12.22 9.791,13.209 C9.791,14.198 8.989,15 8,15 z" fill="#FFFFFF"/>
    <path d="M8,4.582 C7.011,4.582 6.209,3.78 6.209,2.791 C6.209,1.802 7.011,1 8,1 C8.989,1 9.791,1.802 9.791,2.791 C9.791,3.78 8.989,4.582 8,4.582 z" fill="#FFFFFF"/>
  </g>
</svg>
