<?xml version="1.0" encoding="UTF-8"?>
<!DOCTYPE svg PUBLIC "-//W3C//DTD SVG 1.1//EN" "http://www.w3.org/Graphics/SVG/1.1/DTD/svg11.dtd">
<svg version="1.1" xmlns="http://www.w3.org/2000/svg" xmlns:xlink="http://www.w3.org/1999/xlink" x="0" y="0" width="16" height="16" viewBox="0, 0, 16, 16">
  <g id="Livello_1">
    <path d="M2.796,9.89 C2.015,9.89 1.382,9.131 1.382,8.195 C1.382,7.259 2.015,6.5 2.796,6.5 C3.578,6.5 4.211,7.259 4.211,8.195 C4.211,9.131 3.578,9.89 2.796,9.89 z" fill="#FFFDFD"/>
    <path d="M7.805,9.89 C7.024,9.89 6.39,9.131 6.39,8.195 C6.39,7.259 7.024,6.5 7.805,6.5 C8.587,6.5 9.22,7.259 9.22,8.195 C9.22,9.131 8.587,9.89 7.805,9.89 z" fill="#FFFDFD"/>
    <path d="M12.814,9.89 C12.033,9.89 11.399,9.131 11.399,8.195 C11.399,7.259 12.033,6.5 12.814,6.5 C13.596,6.5 14.229,7.259 14.229,8.195 C14.229,9.131 13.596,9.89 12.814,9.89 z" fill="#FFFDFD"/>
  </g>
</svg>
