<svg version="1.2" xmlns="http://www.w3.org/2000/svg" viewBox="0 0 220 179" width="220" height="179">
	<title>genropy declinazioni vett tracciato-svg</title>
	<style>
		.s0 { fill: #1e3055 } 
	</style>
	<g id="Layer">
		<path id="Layer" fill-rule="evenodd" class="s0" d="m127.9 161.4c-0.3 0-34.5 0-35.1 0-35.6-0.9-63.5-29.6-63.5-65.2 0-35.7 27.9-64.4 63.5-65.3 0.6 0 34.8 0 35.1 0 36 0 65.3 29.3 65.3 65.3 0 36-29.3 65.2-65.3 65.2zm0-121.6c-2.2 0-33.8 0-34.9 0-30.8 0.8-54.9 25.5-54.9 56.4 0 30.8 24.1 55.5 54.9 56.4 1 0 33.4 0 34.9 0 31.1 0 56.4-25.3 56.4-56.4 0-31.1-25.3-56.4-56.4-56.4z"/>
	</g>
	<g id="Layer">
		<path id="Layer" class="s0" d="m98.3 0.4v21.2c0 0-9.8 0-10.2 0-22.6 0.6-42.4 11.8-54.9 29.1-4.2-0.1-10.6-0.1-10.6-0.1 13.7-22.2 37.6-37.1 65.3-37.9 0.1 0 0.7 0 1.6 0 0.1 0 0.2-12.3 0.2-12.3z"/>
		<path id="Layer" class="s0" d="m219.6 95v8.8c0 0-9 0-9 0.1-3.4 41.8-37.7 74.8-79.3 74.8-0.5 0-42.6 0-43.4 0-41.2-1.1-74-33.5-77.2-74.8 0-0.1-9.8-0.1-9.8-0.1v-8.8h18.4c0 0 0 1.7 0 2.2 0 39.7 30.2 71.6 68.8 72.6 1.2 0 41.4 0 43.2 0 39 0 70.7-32.6 70.7-72.6 0-0.8-0.1-2.2-0.1-2.2 0 0 17.7 0 17.7 0z"/>
	</g>
	<g id="Layer">
		<path id="Layer" fill-rule="evenodd" class="s0" d="m80 123.5c-14.5 0-26.3-11.8-26.3-26.3 0-14.5 11.8-26.2 26.3-26.2 14.4 0 26.2 11.7 26.2 26.2 0 14.5-11.8 26.3-26.2 26.3zm0-45.1c-10.4 0-18.9 8.4-18.9 18.8 0 10.4 8.5 18.9 18.9 18.9 10.4 0 18.8-8.5 18.8-18.9 0-10.4-8.4-18.8-18.8-18.8z"/>
	</g>
	<g id="Layer">
		<path id="Layer" fill-rule="evenodd" class="s0" d="m141.6 123.5c-14.4 0-26.2-11.8-26.2-26.3 0-14.5 11.8-26.2 26.2-26.2 14.5 0 26.3 11.7 26.3 26.2 0 14.5-11.8 26.3-26.3 26.3zm0-45.1c-10.4 0-18.8 8.4-18.8 18.8 0 10.4 8.4 18.9 18.8 18.9 10.4 0 18.9-8.5 18.9-18.9 0-10.4-8.5-18.8-18.9-18.8z"/>
	</g>
	<path id="Layer" class="s0" d="m131.2 0.4c0 0 0 12.3 0.1 12.3 1 0 1.6 0 1.7 0 27.7 0.8 51.6 15.7 65.2 37.9 0 0-6.4 0-10.6 0.1-12.5-17.3-32.2-28.5-54.9-29.1-0.4 0-10.2 0-10.2 0v-21.2z"/>
</svg>