<?xml version="1.0" encoding="UTF-8"?>
<!DOCTYPE svg PUBLIC "-//W3C//DTD SVG 1.1//EN" "http://www.w3.org/Graphics/SVG/1.1/DTD/svg11.dtd">
<svg version="1.1" xmlns="http://www.w3.org/2000/svg" xmlns:xlink="http://www.w3.org/1999/xlink" x="0" y="0" width="16" height="16" viewBox="0, 0, 16, 16">
  <g id="Layer_1">
    <path d="M7.541,11.077 C7.356,11.262 7.356,11.538 7.541,11.723 L11.048,15.262 C11.233,15.446 11.51,15.446 11.694,15.262 L15.233,11.723 C15.417,11.538 15.417,11.262 15.233,11.077 L14.587,10.431 C14.402,10.246 14.125,10.246 13.941,10.431 L12.833,11.538 C12.648,11.723 12.31,11.6 12.31,11.323 L12.31,4.8 C12.31,4.554 12.094,4.338 11.848,4.338 L10.925,4.338 C10.679,4.338 10.464,4.585 10.464,4.8 L10.464,11.323 C10.464,11.6 10.125,11.723 9.941,11.538 L8.833,10.431 C8.648,10.246 8.371,10.246 8.187,10.431 L7.541,11.077 z M0.771,4.923 L1.417,5.538 C1.602,5.723 1.879,5.723 2.064,5.538 L3.171,4.431 C3.356,4.246 3.694,4.369 3.694,4.646 L3.694,11.231 C3.694,11.477 3.91,11.692 4.156,11.692 L5.079,11.692 C5.325,11.692 5.541,11.446 5.541,11.231 L5.541,4.708 C5.541,4.431 5.879,4.308 6.064,4.492 L7.171,5.6 C7.356,5.785 7.633,5.785 7.817,5.6 L8.464,4.923 C8.648,4.738 8.648,4.462 8.464,4.277 L4.925,0.738 C4.741,0.554 4.464,0.554 4.279,0.738 L0.741,4.277 C0.587,4.462 0.587,4.769 0.771,4.923 z" fill="#515151"/>
  </g>
</svg>
