<?xml version="1.0" encoding="UTF-8"?>
<!DOCTYPE svg PUBLIC "-//W3C//DTD SVG 1.1//EN" "http://www.w3.org/Graphics/SVG/1.1/DTD/svg11.dtd">
<svg version="1.1" xmlns="http://www.w3.org/2000/svg" xmlns:xlink="http://www.w3.org/1999/xlink" x="0" y="0" width="16" height="16" viewBox="0, 0, 16, 16">
  <g id="Layer_1">
    <path d="M11.077,8.459 C11.262,8.644 11.538,8.644 11.723,8.459 L15.262,4.952 C15.446,4.767 15.446,4.49 15.262,4.306 L11.723,0.767 C11.538,0.583 11.262,0.583 11.077,0.767 L10.431,1.413 C10.246,1.598 10.246,1.875 10.431,2.059 L11.538,3.167 C11.723,3.352 11.6,3.69 11.323,3.69 L4.8,3.69 C4.554,3.69 4.338,3.906 4.338,4.152 L4.338,5.075 C4.338,5.321 4.585,5.536 4.8,5.536 L11.323,5.536 C11.6,5.536 11.723,5.875 11.538,6.059 L10.431,7.167 C10.246,7.352 10.246,7.629 10.431,7.813 L11.077,8.459 z M4.923,15.229 L5.538,14.583 C5.723,14.398 5.723,14.121 5.538,13.936 L4.431,12.829 C4.246,12.644 4.369,12.306 4.646,12.306 L11.231,12.306 C11.477,12.306 11.692,12.09 11.692,11.844 L11.692,10.921 C11.692,10.675 11.446,10.459 11.231,10.459 L4.708,10.459 C4.431,10.459 4.308,10.121 4.492,9.936 L5.6,8.829 C5.785,8.644 5.785,8.367 5.6,8.183 L4.923,7.536 C4.738,7.352 4.462,7.352 4.277,7.536 L0.738,11.075 C0.554,11.259 0.554,11.536 0.738,11.721 L4.277,15.259 C4.462,15.413 4.769,15.413 4.923,15.229 z" fill="#515151"/>
  </g>
</svg>
