<svg version="1.2" xmlns="http://www.w3.org/2000/svg" viewBox="0 0 432 118" width="432" height="118">
	<title>genropy declinazioni vett-ai</title>
	<style>
		.s0 { fill: #1e3055 } 
		.s1 { fill: #2c3c52 } 
	</style>
	<g id="Layer 1">
		<g id="&lt;Group&gt;">
			<path id="&lt;Compound Path&gt;" fill-rule="evenodd" class="s0" d="m82.9 104.6c-0.2 0-22.3 0-22.7 0-23.1-0.6-41.1-19.2-41.1-42.2 0-23.1 18-41.6 41.1-42.2 0.4-0.1 22.5-0.1 22.7-0.1 23.3 0 42.2 19 42.2 42.3 0 23.2-18.9 42.2-42.2 42.2zm0-78.7c-1.4 0-21.9 0-22.6 0-19.9 0.5-35.5 16.5-35.5 36.5 0 19.9 15.6 35.9 35.5 36.4 0.7 0 21.7 0 22.6 0 20.1 0 36.5-16.3 36.5-36.4 0-20.2-16.4-36.5-36.5-36.5z"/>
		</g>
		<g id="&lt;Group&gt;">
			<path id="&lt;Path&gt;" class="s0" d="m63.8 0.4v13.7c0 0-6.4 0-6.6 0-14.7 0.4-27.5 7.7-35.5 18.8-2.8 0-6.9 0-6.9 0 8.8-14.4 24.3-24 42.2-24.5 0.1 0 0.5 0 1.1 0 0 0 0.1-8 0.1-8z"/>
			<path id="&lt;Path&gt;" class="s0" d="m142.2 61.6v5.7c0 0-5.8 0-5.8 0-2.2 27.1-24.4 48.4-51.3 48.4-0.3 0-27.6 0-28.1 0-26.6-0.7-47.8-21.6-49.9-48.4 0 0-6.4 0-6.4 0v-5.7h12c0 0 0 1.1 0 1.4 0 25.7 19.5 46.3 44.5 47 0.7 0 26.7 0 27.9 0 25.2 0 45.7-21.1 45.7-47 0-0.5 0-1.4 0-1.4z"/>
		</g>
		<g id="&lt;Group&gt;">
			<path id="&lt;Compound Path&gt;" fill-rule="evenodd" class="s0" d="m51.9 80c-9.4 0-17-7.6-17-17 0-9.3 7.6-16.9 17-16.9 9.3 0 17 7.6 17 16.9 0 9.4-7.7 17-17 17zm0-29.1c-6.7 0-12.2 5.4-12.2 12.1 0 6.8 5.5 12.2 12.2 12.2 6.7 0 12.2-5.4 12.2-12.2 0-6.7-5.5-12.1-12.2-12.1z"/>
		</g>
		<g id="&lt;Group&gt;">
			<path id="&lt;Compound Path&gt;" fill-rule="evenodd" class="s0" d="m91.8 80c-9.4 0-17-7.6-17-17 0-9.3 7.6-16.9 17-16.9 9.3 0 16.9 7.6 16.9 16.9 0 9.4-7.6 17-16.9 17zm0-29.1c-6.7 0-12.2 5.4-12.2 12.1 0 6.8 5.5 12.2 12.2 12.2 6.7 0 12.2-5.4 12.2-12.2 0-6.7-5.5-12.1-12.2-12.1z"/>
		</g>
		<g id="&lt;Group&gt;">
			<path id="&lt;Compound Path&gt;" fill-rule="evenodd" class="s0" d="m160 98.3h7.1v3.6q0 3.9 3.6 6.4 3.2 2.3 7.3 2.3 7.1 0 10.8-5.8 3.1-4.9 3.1-12.4v-2.7q-5.4 4.3-12.4 4.3-8.1 0-13.8-5.7-5.7-5.7-5.7-13.8 0-8 5.7-13.7 5.7-5.8 13.8-5.8 7 0 12.4 4.5v-4.8h7.2v37.7q0 10.6-4.6 17.4-5.2 7.9-15.4 7.9-7.2 0-12.9-4.2-6.2-4.7-6.2-11.6zm31.9-23.8q0-5.5-3.5-8.9-3.4-3.4-8.9-3.4-5.4 0-8.9 3.4-3.5 3.5-3.5 8.9 0 5.4 3.5 8.9 3.5 3.5 8.9 3.5 5.5 0 8.9-3.5 3.5-3.4 3.5-8.9z"/>
			<path id="&lt;Compound Path&gt;" fill-rule="evenodd" class="s0" d="m240.7 77.9h-31.5q1.2 4 4.5 6.5 3.2 2.5 7.5 2.5 5.2 0 8.9-3.6l5 4.9q-5.8 5.8-13.8 5.8-8.3 0-14-5.6-5.7-5.5-5.7-13.9 0-8 5.7-13.7 5.7-5.8 13.8-5.8 8.1 0 13.8 5.8 5.8 5.7 5.8 13.8zm-7.8-7.2q-2.7-8.5-11.8-8.5-9.1 0-11.8 8.5z"/>
			<path id="&lt;Compound Path&gt;" class="s0" d="m281.4 94h-7.1v-19.5q0-5.5-3.5-8.9-3.4-3.4-8.9-3.4-5.4 0-8.9 3.5-3.5 3.4-3.5 8.8v19.5h-7.2v-39.9h7.2v5.4q5.3-4.5 12.4-4.5 8.1 0 13.8 5.8 5.7 5.7 5.7 13.7z"/>
			<path id="&lt;Compound Path&gt;" class="s0" d="m314.8 59.1l-4.5 5.7q-3.4-2.6-7.7-2.6-5.1 0-8.7 3.6-3.7 3.6-3.7 8.8v19.4h-7.1v-39.9h7.1v5.4q5.4-4.5 12.8-4.5 6.9 0 11.8 4.1z"/>
			<path id="&lt;Compound Path&gt;" fill-rule="evenodd" class="s0" d="m349.7 74.5q0 8.1-5.7 13.8-5.7 5.7-13.8 5.7-8.1 0-13.9-5.7-5.7-5.7-5.7-13.8 0-8 5.7-13.7 5.8-5.8 13.9-5.8 8.1 0 13.8 5.8 5.7 5.7 5.7 13.7zm-7.1 0q0-5.5-3.5-8.9-3.4-3.4-8.9-3.4-5.4 0-8.9 3.5-3.5 3.5-3.5 8.8 0 5.4 3.5 8.9 3.5 3.5 8.9 3.5 5.5 0 8.9-3.4 3.5-3.5 3.5-9z"/>
			<path id="&lt;Compound Path&gt;" fill-rule="evenodd" class="s0" d="m359.6 89.7v26.9h-7.1v-61.6h7.1v4.5q5.4-4.5 12.4-4.5 8.1 0 13.8 5.8 5.8 5.7 5.8 13.7 0 8.1-5.8 13.8-5.7 5.7-13.8 5.7-7 0-12.4-4.3zm24.8-15.2q0-5.5-3.4-8.9-3.5-3.4-9-3.4-5.4 0-8.9 3.5-3.5 3.5-3.5 8.8 0 5.4 3.5 8.9 3.5 3.5 8.9 3.5 5.5 0 9-3.4 3.4-3.5 3.4-9z"/>
			<path id="&lt;Compound Path&gt;" class="s0" d="m393.1 98.3h7.2v3.6q0 3.7 3.5 6.3 3.2 2.4 7.1 2.4 7.2 0 11-7.5 2.9-5.8 3-13.7-6 4.6-12.4 4.6-8.1 0-13.8-5.7-5.7-5.7-5.7-13.8 0-3.3-0.1-9.9-0.1-6.6-0.1-9.9h7.1q0 3.3 0.1 9.9 0.1 6.7 0.1 10 0 5.4 3.6 8.8 3.5 3.5 8.8 3.5 5.5 0 9-3.4 3.4-3.4 3.4-8.9v-19.9h7.2v37.7q0 10.6-4.5 17.4-5.3 7.9-15.4 7.9-7.2 0-12.9-4.2-6.2-4.7-6.2-11.6z"/>
		</g>
		<path id="&lt;Path&gt;" class="s1" d="m85 0.4c0 0 0.1 8 0.1 8 0.6 0 1 0 1.1 0 17.9 0.5 33.4 10.1 42.2 24.5 0 0-4.2 0-6.9 0-8-11.1-20.8-18.4-35.5-18.8-0.2 0-6.6 0-6.6 0v-13.7z"/>
	</g>
</svg>